<?xml version="1.0" encoding="utf-8" standalone="no"?>
<!DOCTYPE svg PUBLIC "-//W3C//DTD SVG 1.1//EN"
  "http://www.w3.org/Graphics/SVG/1.1/DTD/svg11.dtd">
<svg xmlns:xlink="http://www.w3.org/1999/xlink" width="698.4pt" height="993.6pt" viewBox="0 0 698.4 993.6" xmlns="http://www.w3.org/2000/svg" version="1.1">
 <metadata>
  <rdf:RDF xmlns:dc="http://purl.org/dc/elements/1.1/" xmlns:cc="http://creativecommons.org/ns#" xmlns:rdf="http://www.w3.org/1999/02/22-rdf-syntax-ns#">
   <cc:Work>
    <dc:type rdf:resource="http://purl.org/dc/dcmitype/StillImage"/>
    <dc:date>2024-06-30T19:06:34.055476</dc:date>
    <dc:format>image/svg+xml</dc:format>
    <dc:creator>
     <cc:Agent>
      <dc:title>Matplotlib v3.9.0, https://matplotlib.org/</dc:title>
     </cc:Agent>
    </dc:creator>
   </cc:Work>
  </rdf:RDF>
 </metadata>
 <defs>
  <style type="text/css">*{stroke-linejoin: round; stroke-linecap: butt}</style>
 </defs>
 <g id="figure_1">
  <g id="patch_1">
   <path d="M 0 993.6 
L 698.4 993.6 
L 698.4 0 
L 0 0 
z
" style="fill: #ffffff"/>
  </g>
  <g id="axes_1">
   <g id="patch_2">
    <path d="M 343.233327 639.661112 
Q 219.333398 769.970344 96.974252 898.659087 
" clip-path="url(#p5793bef0df)" style="fill: none; stroke-dasharray: 7.4,3.2; stroke-dashoffset: 0; stroke: #808080; stroke-width: 2; stroke-linecap: round"/>
    <path d="M 105.385548 895.61769 
L 96.974252 898.659087 
L 99.587912 890.105212 
" clip-path="url(#p5793bef0df)" style="fill: none; stroke-dasharray: 7.4,3.2; stroke-dashoffset: 0; stroke: #808080; stroke-width: 2; stroke-linecap: round"/>
   </g>
   <g id="patch_3">
    <path d="M 355.166673 639.661112 
Q 479.066602 769.970344 601.425748 898.659087 
" clip-path="url(#p5793bef0df)" style="fill: none; stroke-dasharray: 7.4,3.2; stroke-dashoffset: 0; stroke: #808080; stroke-width: 2; stroke-linecap: round"/>
    <path d="M 598.812088 890.105212 
L 601.425748 898.659087 
L 593.014452 895.61769 
" clip-path="url(#p5793bef0df)" style="fill: none; stroke-dasharray: 7.4,3.2; stroke-dashoffset: 0; stroke: #808080; stroke-width: 2; stroke-linecap: round"/>
   </g>
   <g id="patch_4">
    <path d="M 349.2 368.871706 
Q 349.2 496.799959 349.2 622.492144 
" clip-path="url(#p5793bef0df)" style="fill: none; stroke-dasharray: 7.4,3.2; stroke-dashoffset: 0; stroke: #808080; stroke-width: 2; stroke-linecap: round"/>
    <path d="M 353.2 614.492144 
L 349.2 622.492144 
L 345.2 614.492144 
" clip-path="url(#p5793bef0df)" style="fill: none; stroke-dasharray: 7.4,3.2; stroke-dashoffset: 0; stroke: #808080; stroke-width: 2; stroke-linecap: round"/>
   </g>
   <g id="patch_5">
    <path d="M 349.2 95.700136 
Q 349.2 223.628389 349.2 349.320574 
" clip-path="url(#p5793bef0df)" style="fill: none; stroke-dasharray: 7.4,3.2; stroke-dashoffset: 0; stroke: #808080; stroke-width: 2; stroke-linecap: round"/>
    <path d="M 353.2 341.320574 
L 349.2 349.320574 
L 345.2 341.320574 
" clip-path="url(#p5793bef0df)" style="fill: none; stroke-dasharray: 7.4,3.2; stroke-dashoffset: 0; stroke: #808080; stroke-width: 2; stroke-linecap: round"/>
   </g>
   <g id="PathCollection_1">
    <defs>
     <path id="C0_0_0c0f832fae" d="M 0 52.440442 
C 13.907368 52.440442 27.246998 46.914987 37.080992 37.080992 
C 46.914987 27.246998 52.440442 13.907368 52.440442 -0 
C 52.440442 -13.907368 46.914987 -27.246998 37.080992 -37.080992 
C 27.246998 -46.914987 13.907368 -52.440442 0 -52.440442 
C -13.907368 -52.440442 -27.246998 -46.914987 -37.080992 -37.080992 
C -46.914987 -27.246998 -52.440442 -13.907368 -52.440442 0 
C -52.440442 13.907368 -46.914987 27.246998 -37.080992 37.080992 
C -27.246998 46.914987 -13.907368 52.440442 0 52.440442 
z
"/>
    </defs>
    <g clip-path="url(#p5793bef0df)">
     <use xlink:href="#C0_0_0c0f832fae" x="89.464463" y="906.557355" style="fill: #f08080; stroke: #f08080"/>
    </g>
    <g clip-path="url(#p5793bef0df)">
     <use xlink:href="#C0_0_0c0f832fae" x="608.935537" y="906.557355" style="fill: #f08080; stroke: #f08080"/>
    </g>
    <g clip-path="url(#p5793bef0df)">
     <use xlink:href="#C0_0_0c0f832fae" x="349.2" y="633.385785" style="fill: #ffe4b5; stroke: #ffe4b5"/>
    </g>
    <g clip-path="url(#p5793bef0df)">
     <use xlink:href="#C0_0_0c0f832fae" x="349.2" y="360.214215" style="fill: #87ceeb; stroke: #87ceeb"/>
    </g>
    <g clip-path="url(#p5793bef0df)">
     <use xlink:href="#C0_0_0c0f832fae" x="349.2" y="87.042645" style="fill: #90ee90; stroke: #90ee90"/>
    </g>
   </g>
   <g id="text_1">
    <g clip-path="url(#p5793bef0df)">
     <!-- 5 -->
     <g transform="translate(85.985557 903.552512) scale(0.1 -0.1)">
      <defs>
       <path id="DejaVuSans-Bold-35" d="M 678 4666 
L 3669 4666 
L 3669 3781 
L 1638 3781 
L 1638 3059 
Q 1775 3097 1914 3117 
Q 2053 3138 2203 3138 
Q 3056 3138 3531 2711 
Q 4006 2284 4006 1522 
Q 4006 766 3489 337 
Q 2972 -91 2053 -91 
Q 1656 -91 1267 -14 
Q 878 63 494 219 
L 494 1166 
Q 875 947 1217 837 
Q 1559 728 1863 728 
Q 2300 728 2551 942 
Q 2803 1156 2803 1522 
Q 2803 1891 2551 2103 
Q 2300 2316 1863 2316 
Q 1603 2316 1309 2248 
Q 1016 2181 678 2041 
L 678 4666 
z
" transform="scale(0.015625)"/>
      </defs>
      <use xlink:href="#DejaVuSans-Bold-35"/>
     </g>
    </g>
    <g clip-path="url(#p5793bef0df)">
     <!-- C[1, 2] || SW[0, 3] -->
     <g transform="translate(39.208994 914.802824) scale(0.1 -0.1)">
      <defs>
       <path id="DejaVuSans-Bold-43" d="M 4288 256 
Q 3956 84 3597 -3 
Q 3238 -91 2847 -91 
Q 1681 -91 1000 561 
Q 319 1213 319 2328 
Q 319 3447 1000 4098 
Q 1681 4750 2847 4750 
Q 3238 4750 3597 4662 
Q 3956 4575 4288 4403 
L 4288 3438 
Q 3953 3666 3628 3772 
Q 3303 3878 2944 3878 
Q 2300 3878 1931 3465 
Q 1563 3053 1563 2328 
Q 1563 1606 1931 1193 
Q 2300 781 2944 781 
Q 3303 781 3628 887 
Q 3953 994 4288 1222 
L 4288 256 
z
" transform="scale(0.015625)"/>
       <path id="DejaVuSans-Bold-5b" d="M 550 4863 
L 2491 4863 
L 2491 4159 
L 1613 4159 
L 1613 -141 
L 2491 -141 
L 2491 -844 
L 550 -844 
L 550 4863 
z
" transform="scale(0.015625)"/>
       <path id="DejaVuSans-Bold-31" d="M 750 831 
L 1813 831 
L 1813 3847 
L 722 3622 
L 722 4441 
L 1806 4666 
L 2950 4666 
L 2950 831 
L 4013 831 
L 4013 0 
L 750 0 
L 750 831 
z
" transform="scale(0.015625)"/>
       <path id="DejaVuSans-Bold-2c" d="M 653 1209 
L 1778 1209 
L 1778 256 
L 1006 -909 
L 341 -909 
L 653 256 
L 653 1209 
z
" transform="scale(0.015625)"/>
       <path id="DejaVuSans-Bold-20" transform="scale(0.015625)"/>
       <path id="DejaVuSans-Bold-32" d="M 1844 884 
L 3897 884 
L 3897 0 
L 506 0 
L 506 884 
L 2209 2388 
Q 2438 2594 2547 2791 
Q 2656 2988 2656 3200 
Q 2656 3528 2436 3728 
Q 2216 3928 1850 3928 
Q 1569 3928 1234 3808 
Q 900 3688 519 3450 
L 519 4475 
Q 925 4609 1322 4679 
Q 1719 4750 2100 4750 
Q 2938 4750 3402 4381 
Q 3866 4013 3866 3353 
Q 3866 2972 3669 2642 
Q 3472 2313 2841 1759 
L 1844 884 
z
" transform="scale(0.015625)"/>
       <path id="DejaVuSans-Bold-5d" d="M 2375 -844 
L 434 -844 
L 434 -141 
L 1313 -141 
L 1313 4159 
L 434 4159 
L 434 4863 
L 2375 4863 
L 2375 -844 
z
" transform="scale(0.015625)"/>
       <path id="DejaVuSans-Bold-7c" d="M 1522 4891 
L 1522 -1509 
L 813 -1509 
L 813 4891 
L 1522 4891 
z
" transform="scale(0.015625)"/>
       <path id="DejaVuSans-Bold-53" d="M 3834 4519 
L 3834 3531 
Q 3450 3703 3084 3790 
Q 2719 3878 2394 3878 
Q 1963 3878 1756 3759 
Q 1550 3641 1550 3391 
Q 1550 3203 1689 3098 
Q 1828 2994 2194 2919 
L 2706 2816 
Q 3484 2659 3812 2340 
Q 4141 2022 4141 1434 
Q 4141 663 3683 286 
Q 3225 -91 2284 -91 
Q 1841 -91 1394 -6 
Q 947 78 500 244 
L 500 1259 
Q 947 1022 1364 901 
Q 1781 781 2169 781 
Q 2563 781 2772 912 
Q 2981 1044 2981 1288 
Q 2981 1506 2839 1625 
Q 2697 1744 2272 1838 
L 1806 1941 
Q 1106 2091 782 2419 
Q 459 2747 459 3303 
Q 459 4000 909 4375 
Q 1359 4750 2203 4750 
Q 2588 4750 2994 4692 
Q 3400 4634 3834 4519 
z
" transform="scale(0.015625)"/>
       <path id="DejaVuSans-Bold-57" d="M 191 4666 
L 1344 4666 
L 2150 1275 
L 2950 4666 
L 4109 4666 
L 4909 1275 
L 5716 4666 
L 6859 4666 
L 5759 0 
L 4372 0 
L 3525 3547 
L 2688 0 
L 1300 0 
L 191 4666 
z
" transform="scale(0.015625)"/>
       <path id="DejaVuSans-Bold-30" d="M 2944 2338 
Q 2944 3213 2780 3570 
Q 2616 3928 2228 3928 
Q 1841 3928 1675 3570 
Q 1509 3213 1509 2338 
Q 1509 1453 1675 1090 
Q 1841 728 2228 728 
Q 2613 728 2778 1090 
Q 2944 1453 2944 2338 
z
M 4147 2328 
Q 4147 1169 3647 539 
Q 3147 -91 2228 -91 
Q 1306 -91 806 539 
Q 306 1169 306 2328 
Q 306 3491 806 4120 
Q 1306 4750 2228 4750 
Q 3147 4750 3647 4120 
Q 4147 3491 4147 2328 
z
" transform="scale(0.015625)"/>
       <path id="DejaVuSans-Bold-33" d="M 2981 2516 
Q 3453 2394 3698 2092 
Q 3944 1791 3944 1325 
Q 3944 631 3412 270 
Q 2881 -91 1863 -91 
Q 1503 -91 1142 -33 
Q 781 25 428 141 
L 428 1069 
Q 766 900 1098 814 
Q 1431 728 1753 728 
Q 2231 728 2486 893 
Q 2741 1059 2741 1369 
Q 2741 1688 2480 1852 
Q 2219 2016 1709 2016 
L 1228 2016 
L 1228 2791 
L 1734 2791 
Q 2188 2791 2409 2933 
Q 2631 3075 2631 3366 
Q 2631 3634 2415 3781 
Q 2200 3928 1806 3928 
Q 1516 3928 1219 3862 
Q 922 3797 628 3669 
L 628 4550 
Q 984 4650 1334 4700 
Q 1684 4750 2022 4750 
Q 2931 4750 3382 4451 
Q 3834 4153 3834 3553 
Q 3834 3144 3618 2883 
Q 3403 2622 2981 2516 
z
" transform="scale(0.015625)"/>
      </defs>
      <use xlink:href="#DejaVuSans-Bold-43"/>
      <use xlink:href="#DejaVuSans-Bold-5b" x="73.388672"/>
      <use xlink:href="#DejaVuSans-Bold-31" x="119.091797"/>
      <use xlink:href="#DejaVuSans-Bold-2c" x="188.671875"/>
      <use xlink:href="#DejaVuSans-Bold-20" x="226.660156"/>
      <use xlink:href="#DejaVuSans-Bold-32" x="261.474609"/>
      <use xlink:href="#DejaVuSans-Bold-5d" x="331.054688"/>
      <use xlink:href="#DejaVuSans-Bold-20" x="376.757812"/>
      <use xlink:href="#DejaVuSans-Bold-7c" x="411.572266"/>
      <use xlink:href="#DejaVuSans-Bold-7c" x="448.095703"/>
      <use xlink:href="#DejaVuSans-Bold-20" x="484.619141"/>
      <use xlink:href="#DejaVuSans-Bold-53" x="519.433594"/>
      <use xlink:href="#DejaVuSans-Bold-57" x="591.455078"/>
      <use xlink:href="#DejaVuSans-Bold-5b" x="701.757812"/>
      <use xlink:href="#DejaVuSans-Bold-30" x="747.460938"/>
      <use xlink:href="#DejaVuSans-Bold-2c" x="817.041016"/>
      <use xlink:href="#DejaVuSans-Bold-20" x="855.029297"/>
      <use xlink:href="#DejaVuSans-Bold-33" x="889.84375"/>
      <use xlink:href="#DejaVuSans-Bold-5d" x="959.423828"/>
     </g>
    </g>
   </g>
   <g id="text_2">
    <g clip-path="url(#p5793bef0df)">
     <!-- 6 -->
     <g transform="translate(605.456631 903.552512) scale(0.1 -0.1)">
      <defs>
       <path id="DejaVuSans-Bold-36" d="M 2316 2303 
Q 2000 2303 1842 2098 
Q 1684 1894 1684 1484 
Q 1684 1075 1842 870 
Q 2000 666 2316 666 
Q 2634 666 2792 870 
Q 2950 1075 2950 1484 
Q 2950 1894 2792 2098 
Q 2634 2303 2316 2303 
z
M 3803 4544 
L 3803 3681 
Q 3506 3822 3243 3889 
Q 2981 3956 2731 3956 
Q 2194 3956 1894 3657 
Q 1594 3359 1544 2772 
Q 1750 2925 1990 3001 
Q 2231 3078 2516 3078 
Q 3231 3078 3670 2659 
Q 4109 2241 4109 1563 
Q 4109 813 3618 361 
Q 3128 -91 2303 -91 
Q 1394 -91 895 523 
Q 397 1138 397 2266 
Q 397 3422 980 4083 
Q 1563 4744 2578 4744 
Q 2900 4744 3203 4694 
Q 3506 4644 3803 4544 
z
" transform="scale(0.015625)"/>
      </defs>
      <use xlink:href="#DejaVuSans-Bold-36"/>
     </g>
    </g>
    <g clip-path="url(#p5793bef0df)">
     <!-- C[1, 2] || SW[0, 3] -->
     <g transform="translate(558.680068 914.802824) scale(0.1 -0.1)">
      <use xlink:href="#DejaVuSans-Bold-43"/>
      <use xlink:href="#DejaVuSans-Bold-5b" x="73.388672"/>
      <use xlink:href="#DejaVuSans-Bold-31" x="119.091797"/>
      <use xlink:href="#DejaVuSans-Bold-2c" x="188.671875"/>
      <use xlink:href="#DejaVuSans-Bold-20" x="226.660156"/>
      <use xlink:href="#DejaVuSans-Bold-32" x="261.474609"/>
      <use xlink:href="#DejaVuSans-Bold-5d" x="331.054688"/>
      <use xlink:href="#DejaVuSans-Bold-20" x="376.757812"/>
      <use xlink:href="#DejaVuSans-Bold-7c" x="411.572266"/>
      <use xlink:href="#DejaVuSans-Bold-7c" x="448.095703"/>
      <use xlink:href="#DejaVuSans-Bold-20" x="484.619141"/>
      <use xlink:href="#DejaVuSans-Bold-53" x="519.433594"/>
      <use xlink:href="#DejaVuSans-Bold-57" x="591.455078"/>
      <use xlink:href="#DejaVuSans-Bold-5b" x="701.757812"/>
      <use xlink:href="#DejaVuSans-Bold-30" x="747.460938"/>
      <use xlink:href="#DejaVuSans-Bold-2c" x="817.041016"/>
      <use xlink:href="#DejaVuSans-Bold-20" x="855.029297"/>
      <use xlink:href="#DejaVuSans-Bold-33" x="889.84375"/>
      <use xlink:href="#DejaVuSans-Bold-5d" x="959.423828"/>
     </g>
    </g>
   </g>
   <g id="text_3">
    <g clip-path="url(#p5793bef0df)">
     <!-- 3 -->
     <g transform="translate(345.721094 630.380941) scale(0.1 -0.1)">
      <use xlink:href="#DejaVuSans-Bold-33"/>
     </g>
    </g>
    <g clip-path="url(#p5793bef0df)">
     <!-- C[1, 2] || SW[0, 2] -->
     <g transform="translate(298.944531 641.631254) scale(0.1 -0.1)">
      <use xlink:href="#DejaVuSans-Bold-43"/>
      <use xlink:href="#DejaVuSans-Bold-5b" x="73.388672"/>
      <use xlink:href="#DejaVuSans-Bold-31" x="119.091797"/>
      <use xlink:href="#DejaVuSans-Bold-2c" x="188.671875"/>
      <use xlink:href="#DejaVuSans-Bold-20" x="226.660156"/>
      <use xlink:href="#DejaVuSans-Bold-32" x="261.474609"/>
      <use xlink:href="#DejaVuSans-Bold-5d" x="331.054688"/>
      <use xlink:href="#DejaVuSans-Bold-20" x="376.757812"/>
      <use xlink:href="#DejaVuSans-Bold-7c" x="411.572266"/>
      <use xlink:href="#DejaVuSans-Bold-7c" x="448.095703"/>
      <use xlink:href="#DejaVuSans-Bold-20" x="484.619141"/>
      <use xlink:href="#DejaVuSans-Bold-53" x="519.433594"/>
      <use xlink:href="#DejaVuSans-Bold-57" x="591.455078"/>
      <use xlink:href="#DejaVuSans-Bold-5b" x="701.757812"/>
      <use xlink:href="#DejaVuSans-Bold-30" x="747.460938"/>
      <use xlink:href="#DejaVuSans-Bold-2c" x="817.041016"/>
      <use xlink:href="#DejaVuSans-Bold-20" x="855.029297"/>
      <use xlink:href="#DejaVuSans-Bold-32" x="889.84375"/>
      <use xlink:href="#DejaVuSans-Bold-5d" x="959.423828"/>
     </g>
    </g>
   </g>
   <g id="text_4">
    <g clip-path="url(#p5793bef0df)">
     <!-- 1 -->
     <g transform="translate(345.721094 357.209371) scale(0.1 -0.1)">
      <use xlink:href="#DejaVuSans-Bold-31"/>
     </g>
    </g>
    <g clip-path="url(#p5793bef0df)">
     <!-- C[0, 0] || SW[0, 1] -->
     <g transform="translate(298.944531 368.459684) scale(0.1 -0.1)">
      <use xlink:href="#DejaVuSans-Bold-43"/>
      <use xlink:href="#DejaVuSans-Bold-5b" x="73.388672"/>
      <use xlink:href="#DejaVuSans-Bold-30" x="119.091797"/>
      <use xlink:href="#DejaVuSans-Bold-2c" x="188.671875"/>
      <use xlink:href="#DejaVuSans-Bold-20" x="226.660156"/>
      <use xlink:href="#DejaVuSans-Bold-30" x="261.474609"/>
      <use xlink:href="#DejaVuSans-Bold-5d" x="331.054688"/>
      <use xlink:href="#DejaVuSans-Bold-20" x="376.757812"/>
      <use xlink:href="#DejaVuSans-Bold-7c" x="411.572266"/>
      <use xlink:href="#DejaVuSans-Bold-7c" x="448.095703"/>
      <use xlink:href="#DejaVuSans-Bold-20" x="484.619141"/>
      <use xlink:href="#DejaVuSans-Bold-53" x="519.433594"/>
      <use xlink:href="#DejaVuSans-Bold-57" x="591.455078"/>
      <use xlink:href="#DejaVuSans-Bold-5b" x="701.757812"/>
      <use xlink:href="#DejaVuSans-Bold-30" x="747.460938"/>
      <use xlink:href="#DejaVuSans-Bold-2c" x="817.041016"/>
      <use xlink:href="#DejaVuSans-Bold-20" x="855.029297"/>
      <use xlink:href="#DejaVuSans-Bold-31" x="889.84375"/>
      <use xlink:href="#DejaVuSans-Bold-5d" x="959.423828"/>
     </g>
    </g>
   </g>
   <g id="text_5">
    <g clip-path="url(#p5793bef0df)">
     <!-- 0 -->
     <g transform="translate(345.721094 84.037801) scale(0.1 -0.1)">
      <use xlink:href="#DejaVuSans-Bold-30"/>
     </g>
    </g>
    <g clip-path="url(#p5793bef0df)">
     <!-- C[0, 0] || SW[0, 0] -->
     <g transform="translate(298.944531 95.288113) scale(0.1 -0.1)">
      <use xlink:href="#DejaVuSans-Bold-43"/>
      <use xlink:href="#DejaVuSans-Bold-5b" x="73.388672"/>
      <use xlink:href="#DejaVuSans-Bold-30" x="119.091797"/>
      <use xlink:href="#DejaVuSans-Bold-2c" x="188.671875"/>
      <use xlink:href="#DejaVuSans-Bold-20" x="226.660156"/>
      <use xlink:href="#DejaVuSans-Bold-30" x="261.474609"/>
      <use xlink:href="#DejaVuSans-Bold-5d" x="331.054688"/>
      <use xlink:href="#DejaVuSans-Bold-20" x="376.757812"/>
      <use xlink:href="#DejaVuSans-Bold-7c" x="411.572266"/>
      <use xlink:href="#DejaVuSans-Bold-7c" x="448.095703"/>
      <use xlink:href="#DejaVuSans-Bold-20" x="484.619141"/>
      <use xlink:href="#DejaVuSans-Bold-53" x="519.433594"/>
      <use xlink:href="#DejaVuSans-Bold-57" x="591.455078"/>
      <use xlink:href="#DejaVuSans-Bold-5b" x="701.757812"/>
      <use xlink:href="#DejaVuSans-Bold-30" x="747.460938"/>
      <use xlink:href="#DejaVuSans-Bold-2c" x="817.041016"/>
      <use xlink:href="#DejaVuSans-Bold-20" x="855.029297"/>
      <use xlink:href="#DejaVuSans-Bold-30" x="889.84375"/>
      <use xlink:href="#DejaVuSans-Bold-5d" x="959.423828"/>
     </g>
    </g>
   </g>
   <g id="text_6">
    <g id="patch_6">
     <path d="M 7.128682 834.990517 
L 171.800244 834.990517 
L 171.800244 818.774111 
L 7.128682 818.774111 
z
" style="opacity: 0.6; stroke: #000000; stroke-linejoin: miter"/>
    </g>
    <!-- [SW] "(flag = blocking) . (pt = 1) . 1" -->
    <g style="fill: #ffffff" transform="translate(11.123682 829.227783) scale(0.085 -0.085)">
     <defs>
      <path id="DejaVuSans-5b" d="M 550 4863 
L 1875 4863 
L 1875 4416 
L 1125 4416 
L 1125 -397 
L 1875 -397 
L 1875 -844 
L 550 -844 
L 550 4863 
z
" transform="scale(0.015625)"/>
      <path id="DejaVuSans-53" d="M 3425 4513 
L 3425 3897 
Q 3066 4069 2747 4153 
Q 2428 4238 2131 4238 
Q 1616 4238 1336 4038 
Q 1056 3838 1056 3469 
Q 1056 3159 1242 3001 
Q 1428 2844 1947 2747 
L 2328 2669 
Q 3034 2534 3370 2195 
Q 3706 1856 3706 1288 
Q 3706 609 3251 259 
Q 2797 -91 1919 -91 
Q 1588 -91 1214 -16 
Q 841 59 441 206 
L 441 856 
Q 825 641 1194 531 
Q 1563 422 1919 422 
Q 2459 422 2753 634 
Q 3047 847 3047 1241 
Q 3047 1584 2836 1778 
Q 2625 1972 2144 2069 
L 1759 2144 
Q 1053 2284 737 2584 
Q 422 2884 422 3419 
Q 422 4038 858 4394 
Q 1294 4750 2059 4750 
Q 2388 4750 2728 4690 
Q 3069 4631 3425 4513 
z
" transform="scale(0.015625)"/>
      <path id="DejaVuSans-57" d="M 213 4666 
L 850 4666 
L 1831 722 
L 2809 4666 
L 3519 4666 
L 4500 722 
L 5478 4666 
L 6119 4666 
L 4947 0 
L 4153 0 
L 3169 4050 
L 2175 0 
L 1381 0 
L 213 4666 
z
" transform="scale(0.015625)"/>
      <path id="DejaVuSans-5d" d="M 1947 4863 
L 1947 -844 
L 622 -844 
L 622 -397 
L 1369 -397 
L 1369 4416 
L 622 4416 
L 622 4863 
L 1947 4863 
z
" transform="scale(0.015625)"/>
      <path id="DejaVuSans-20" transform="scale(0.015625)"/>
      <path id="DejaVuSans-22" d="M 1147 4666 
L 1147 2931 
L 616 2931 
L 616 4666 
L 1147 4666 
z
M 2328 4666 
L 2328 2931 
L 1797 2931 
L 1797 4666 
L 2328 4666 
z
" transform="scale(0.015625)"/>
      <path id="DejaVuSans-28" d="M 1984 4856 
Q 1566 4138 1362 3434 
Q 1159 2731 1159 2009 
Q 1159 1288 1364 580 
Q 1569 -128 1984 -844 
L 1484 -844 
Q 1016 -109 783 600 
Q 550 1309 550 2009 
Q 550 2706 781 3412 
Q 1013 4119 1484 4856 
L 1984 4856 
z
" transform="scale(0.015625)"/>
      <path id="DejaVuSans-66" d="M 2375 4863 
L 2375 4384 
L 1825 4384 
Q 1516 4384 1395 4259 
Q 1275 4134 1275 3809 
L 1275 3500 
L 2222 3500 
L 2222 3053 
L 1275 3053 
L 1275 0 
L 697 0 
L 697 3053 
L 147 3053 
L 147 3500 
L 697 3500 
L 697 3744 
Q 697 4328 969 4595 
Q 1241 4863 1831 4863 
L 2375 4863 
z
" transform="scale(0.015625)"/>
      <path id="DejaVuSans-6c" d="M 603 4863 
L 1178 4863 
L 1178 0 
L 603 0 
L 603 4863 
z
" transform="scale(0.015625)"/>
      <path id="DejaVuSans-61" d="M 2194 1759 
Q 1497 1759 1228 1600 
Q 959 1441 959 1056 
Q 959 750 1161 570 
Q 1363 391 1709 391 
Q 2188 391 2477 730 
Q 2766 1069 2766 1631 
L 2766 1759 
L 2194 1759 
z
M 3341 1997 
L 3341 0 
L 2766 0 
L 2766 531 
Q 2569 213 2275 61 
Q 1981 -91 1556 -91 
Q 1019 -91 701 211 
Q 384 513 384 1019 
Q 384 1609 779 1909 
Q 1175 2209 1959 2209 
L 2766 2209 
L 2766 2266 
Q 2766 2663 2505 2880 
Q 2244 3097 1772 3097 
Q 1472 3097 1187 3025 
Q 903 2953 641 2809 
L 641 3341 
Q 956 3463 1253 3523 
Q 1550 3584 1831 3584 
Q 2591 3584 2966 3190 
Q 3341 2797 3341 1997 
z
" transform="scale(0.015625)"/>
      <path id="DejaVuSans-67" d="M 2906 1791 
Q 2906 2416 2648 2759 
Q 2391 3103 1925 3103 
Q 1463 3103 1205 2759 
Q 947 2416 947 1791 
Q 947 1169 1205 825 
Q 1463 481 1925 481 
Q 2391 481 2648 825 
Q 2906 1169 2906 1791 
z
M 3481 434 
Q 3481 -459 3084 -895 
Q 2688 -1331 1869 -1331 
Q 1566 -1331 1297 -1286 
Q 1028 -1241 775 -1147 
L 775 -588 
Q 1028 -725 1275 -790 
Q 1522 -856 1778 -856 
Q 2344 -856 2625 -561 
Q 2906 -266 2906 331 
L 2906 616 
Q 2728 306 2450 153 
Q 2172 0 1784 0 
Q 1141 0 747 490 
Q 353 981 353 1791 
Q 353 2603 747 3093 
Q 1141 3584 1784 3584 
Q 2172 3584 2450 3431 
Q 2728 3278 2906 2969 
L 2906 3500 
L 3481 3500 
L 3481 434 
z
" transform="scale(0.015625)"/>
      <path id="DejaVuSans-3d" d="M 678 2906 
L 4684 2906 
L 4684 2381 
L 678 2381 
L 678 2906 
z
M 678 1631 
L 4684 1631 
L 4684 1100 
L 678 1100 
L 678 1631 
z
" transform="scale(0.015625)"/>
      <path id="DejaVuSans-62" d="M 3116 1747 
Q 3116 2381 2855 2742 
Q 2594 3103 2138 3103 
Q 1681 3103 1420 2742 
Q 1159 2381 1159 1747 
Q 1159 1113 1420 752 
Q 1681 391 2138 391 
Q 2594 391 2855 752 
Q 3116 1113 3116 1747 
z
M 1159 2969 
Q 1341 3281 1617 3432 
Q 1894 3584 2278 3584 
Q 2916 3584 3314 3078 
Q 3713 2572 3713 1747 
Q 3713 922 3314 415 
Q 2916 -91 2278 -91 
Q 1894 -91 1617 61 
Q 1341 213 1159 525 
L 1159 0 
L 581 0 
L 581 4863 
L 1159 4863 
L 1159 2969 
z
" transform="scale(0.015625)"/>
      <path id="DejaVuSans-6f" d="M 1959 3097 
Q 1497 3097 1228 2736 
Q 959 2375 959 1747 
Q 959 1119 1226 758 
Q 1494 397 1959 397 
Q 2419 397 2687 759 
Q 2956 1122 2956 1747 
Q 2956 2369 2687 2733 
Q 2419 3097 1959 3097 
z
M 1959 3584 
Q 2709 3584 3137 3096 
Q 3566 2609 3566 1747 
Q 3566 888 3137 398 
Q 2709 -91 1959 -91 
Q 1206 -91 779 398 
Q 353 888 353 1747 
Q 353 2609 779 3096 
Q 1206 3584 1959 3584 
z
" transform="scale(0.015625)"/>
      <path id="DejaVuSans-63" d="M 3122 3366 
L 3122 2828 
Q 2878 2963 2633 3030 
Q 2388 3097 2138 3097 
Q 1578 3097 1268 2742 
Q 959 2388 959 1747 
Q 959 1106 1268 751 
Q 1578 397 2138 397 
Q 2388 397 2633 464 
Q 2878 531 3122 666 
L 3122 134 
Q 2881 22 2623 -34 
Q 2366 -91 2075 -91 
Q 1284 -91 818 406 
Q 353 903 353 1747 
Q 353 2603 823 3093 
Q 1294 3584 2113 3584 
Q 2378 3584 2631 3529 
Q 2884 3475 3122 3366 
z
" transform="scale(0.015625)"/>
      <path id="DejaVuSans-6b" d="M 581 4863 
L 1159 4863 
L 1159 1991 
L 2875 3500 
L 3609 3500 
L 1753 1863 
L 3688 0 
L 2938 0 
L 1159 1709 
L 1159 0 
L 581 0 
L 581 4863 
z
" transform="scale(0.015625)"/>
      <path id="DejaVuSans-69" d="M 603 3500 
L 1178 3500 
L 1178 0 
L 603 0 
L 603 3500 
z
M 603 4863 
L 1178 4863 
L 1178 4134 
L 603 4134 
L 603 4863 
z
" transform="scale(0.015625)"/>
      <path id="DejaVuSans-6e" d="M 3513 2113 
L 3513 0 
L 2938 0 
L 2938 2094 
Q 2938 2591 2744 2837 
Q 2550 3084 2163 3084 
Q 1697 3084 1428 2787 
Q 1159 2491 1159 1978 
L 1159 0 
L 581 0 
L 581 3500 
L 1159 3500 
L 1159 2956 
Q 1366 3272 1645 3428 
Q 1925 3584 2291 3584 
Q 2894 3584 3203 3211 
Q 3513 2838 3513 2113 
z
" transform="scale(0.015625)"/>
      <path id="DejaVuSans-29" d="M 513 4856 
L 1013 4856 
Q 1481 4119 1714 3412 
Q 1947 2706 1947 2009 
Q 1947 1309 1714 600 
Q 1481 -109 1013 -844 
L 513 -844 
Q 928 -128 1133 580 
Q 1338 1288 1338 2009 
Q 1338 2731 1133 3434 
Q 928 4138 513 4856 
z
" transform="scale(0.015625)"/>
      <path id="DejaVuSans-2e" d="M 684 794 
L 1344 794 
L 1344 0 
L 684 0 
L 684 794 
z
" transform="scale(0.015625)"/>
      <path id="DejaVuSans-70" d="M 1159 525 
L 1159 -1331 
L 581 -1331 
L 581 3500 
L 1159 3500 
L 1159 2969 
Q 1341 3281 1617 3432 
Q 1894 3584 2278 3584 
Q 2916 3584 3314 3078 
Q 3713 2572 3713 1747 
Q 3713 922 3314 415 
Q 2916 -91 2278 -91 
Q 1894 -91 1617 61 
Q 1341 213 1159 525 
z
M 3116 1747 
Q 3116 2381 2855 2742 
Q 2594 3103 2138 3103 
Q 1681 3103 1420 2742 
Q 1159 2381 1159 1747 
Q 1159 1113 1420 752 
Q 1681 391 2138 391 
Q 2594 391 2855 752 
Q 3116 1113 3116 1747 
z
" transform="scale(0.015625)"/>
      <path id="DejaVuSans-74" d="M 1172 4494 
L 1172 3500 
L 2356 3500 
L 2356 3053 
L 1172 3053 
L 1172 1153 
Q 1172 725 1289 603 
Q 1406 481 1766 481 
L 2356 481 
L 2356 0 
L 1766 0 
Q 1100 0 847 248 
Q 594 497 594 1153 
L 594 3053 
L 172 3053 
L 172 3500 
L 594 3500 
L 594 4494 
L 1172 4494 
z
" transform="scale(0.015625)"/>
      <path id="DejaVuSans-31" d="M 794 531 
L 1825 531 
L 1825 4091 
L 703 3866 
L 703 4441 
L 1819 4666 
L 2450 4666 
L 2450 531 
L 3481 531 
L 3481 0 
L 794 0 
L 794 531 
z
" transform="scale(0.015625)"/>
     </defs>
     <use xlink:href="#DejaVuSans-5b"/>
     <use xlink:href="#DejaVuSans-53" x="39.013672"/>
     <use xlink:href="#DejaVuSans-57" x="102.490234"/>
     <use xlink:href="#DejaVuSans-5d" x="201.367188"/>
     <use xlink:href="#DejaVuSans-20" x="240.380859"/>
     <use xlink:href="#DejaVuSans-22" x="272.167969"/>
     <use xlink:href="#DejaVuSans-28" x="318.164062"/>
     <use xlink:href="#DejaVuSans-66" x="357.177734"/>
     <use xlink:href="#DejaVuSans-6c" x="392.382812"/>
     <use xlink:href="#DejaVuSans-61" x="420.166016"/>
     <use xlink:href="#DejaVuSans-67" x="481.445312"/>
     <use xlink:href="#DejaVuSans-20" x="544.921875"/>
     <use xlink:href="#DejaVuSans-3d" x="576.708984"/>
     <use xlink:href="#DejaVuSans-20" x="660.498047"/>
     <use xlink:href="#DejaVuSans-62" x="692.285156"/>
     <use xlink:href="#DejaVuSans-6c" x="755.761719"/>
     <use xlink:href="#DejaVuSans-6f" x="783.544922"/>
     <use xlink:href="#DejaVuSans-63" x="844.726562"/>
     <use xlink:href="#DejaVuSans-6b" x="899.707031"/>
     <use xlink:href="#DejaVuSans-69" x="957.617188"/>
     <use xlink:href="#DejaVuSans-6e" x="985.400391"/>
     <use xlink:href="#DejaVuSans-67" x="1048.779297"/>
     <use xlink:href="#DejaVuSans-29" x="1112.255859"/>
     <use xlink:href="#DejaVuSans-20" x="1151.269531"/>
     <use xlink:href="#DejaVuSans-2e" x="1183.056641"/>
     <use xlink:href="#DejaVuSans-20" x="1214.84375"/>
     <use xlink:href="#DejaVuSans-28" x="1246.630859"/>
     <use xlink:href="#DejaVuSans-70" x="1285.644531"/>
     <use xlink:href="#DejaVuSans-74" x="1349.121094"/>
     <use xlink:href="#DejaVuSans-20" x="1388.330078"/>
     <use xlink:href="#DejaVuSans-3d" x="1420.117188"/>
     <use xlink:href="#DejaVuSans-20" x="1503.90625"/>
     <use xlink:href="#DejaVuSans-31" x="1535.693359"/>
     <use xlink:href="#DejaVuSans-29" x="1599.316406"/>
     <use xlink:href="#DejaVuSans-20" x="1638.330078"/>
     <use xlink:href="#DejaVuSans-2e" x="1670.117188"/>
     <use xlink:href="#DejaVuSans-20" x="1701.904297"/>
     <use xlink:href="#DejaVuSans-31" x="1733.691406"/>
     <use xlink:href="#DejaVuSans-22" x="1797.314453"/>
    </g>
   </g>
   <g id="text_7">
    <g id="patch_7">
     <path d="M 513.782022 808.43217 
L 704.089053 808.43217 
L 704.089053 792.215764 
L 513.782022 792.215764 
z
" style="opacity: 0.6; stroke: #000000; stroke-linejoin: miter"/>
    </g>
    <!-- [SW] "(flag = regular) . (pt = 1) . (pt &lt;- 2)" -->
    <g style="fill: #ffffff" transform="translate(517.777022 802.669436) scale(0.085 -0.085)">
     <defs>
      <path id="DejaVuSans-72" d="M 2631 2963 
Q 2534 3019 2420 3045 
Q 2306 3072 2169 3072 
Q 1681 3072 1420 2755 
Q 1159 2438 1159 1844 
L 1159 0 
L 581 0 
L 581 3500 
L 1159 3500 
L 1159 2956 
Q 1341 3275 1631 3429 
Q 1922 3584 2338 3584 
Q 2397 3584 2469 3576 
Q 2541 3569 2628 3553 
L 2631 2963 
z
" transform="scale(0.015625)"/>
      <path id="DejaVuSans-65" d="M 3597 1894 
L 3597 1613 
L 953 1613 
Q 991 1019 1311 708 
Q 1631 397 2203 397 
Q 2534 397 2845 478 
Q 3156 559 3463 722 
L 3463 178 
Q 3153 47 2828 -22 
Q 2503 -91 2169 -91 
Q 1331 -91 842 396 
Q 353 884 353 1716 
Q 353 2575 817 3079 
Q 1281 3584 2069 3584 
Q 2775 3584 3186 3129 
Q 3597 2675 3597 1894 
z
M 3022 2063 
Q 3016 2534 2758 2815 
Q 2500 3097 2075 3097 
Q 1594 3097 1305 2825 
Q 1016 2553 972 2059 
L 3022 2063 
z
" transform="scale(0.015625)"/>
      <path id="DejaVuSans-75" d="M 544 1381 
L 544 3500 
L 1119 3500 
L 1119 1403 
Q 1119 906 1312 657 
Q 1506 409 1894 409 
Q 2359 409 2629 706 
Q 2900 1003 2900 1516 
L 2900 3500 
L 3475 3500 
L 3475 0 
L 2900 0 
L 2900 538 
Q 2691 219 2414 64 
Q 2138 -91 1772 -91 
Q 1169 -91 856 284 
Q 544 659 544 1381 
z
M 1991 3584 
L 1991 3584 
z
" transform="scale(0.015625)"/>
      <path id="DejaVuSans-3c" d="M 4684 3150 
L 1459 2003 
L 4684 863 
L 4684 294 
L 678 1747 
L 678 2266 
L 4684 3719 
L 4684 3150 
z
" transform="scale(0.015625)"/>
      <path id="DejaVuSans-2d" d="M 313 2009 
L 1997 2009 
L 1997 1497 
L 313 1497 
L 313 2009 
z
" transform="scale(0.015625)"/>
      <path id="DejaVuSans-32" d="M 1228 531 
L 3431 531 
L 3431 0 
L 469 0 
L 469 531 
Q 828 903 1448 1529 
Q 2069 2156 2228 2338 
Q 2531 2678 2651 2914 
Q 2772 3150 2772 3378 
Q 2772 3750 2511 3984 
Q 2250 4219 1831 4219 
Q 1534 4219 1204 4116 
Q 875 4013 500 3803 
L 500 4441 
Q 881 4594 1212 4672 
Q 1544 4750 1819 4750 
Q 2544 4750 2975 4387 
Q 3406 4025 3406 3419 
Q 3406 3131 3298 2873 
Q 3191 2616 2906 2266 
Q 2828 2175 2409 1742 
Q 1991 1309 1228 531 
z
" transform="scale(0.015625)"/>
     </defs>
     <use xlink:href="#DejaVuSans-5b"/>
     <use xlink:href="#DejaVuSans-53" x="39.013672"/>
     <use xlink:href="#DejaVuSans-57" x="102.490234"/>
     <use xlink:href="#DejaVuSans-5d" x="201.367188"/>
     <use xlink:href="#DejaVuSans-20" x="240.380859"/>
     <use xlink:href="#DejaVuSans-22" x="272.167969"/>
     <use xlink:href="#DejaVuSans-28" x="318.164062"/>
     <use xlink:href="#DejaVuSans-66" x="357.177734"/>
     <use xlink:href="#DejaVuSans-6c" x="392.382812"/>
     <use xlink:href="#DejaVuSans-61" x="420.166016"/>
     <use xlink:href="#DejaVuSans-67" x="481.445312"/>
     <use xlink:href="#DejaVuSans-20" x="544.921875"/>
     <use xlink:href="#DejaVuSans-3d" x="576.708984"/>
     <use xlink:href="#DejaVuSans-20" x="660.498047"/>
     <use xlink:href="#DejaVuSans-72" x="692.285156"/>
     <use xlink:href="#DejaVuSans-65" x="731.148438"/>
     <use xlink:href="#DejaVuSans-67" x="792.671875"/>
     <use xlink:href="#DejaVuSans-75" x="856.148438"/>
     <use xlink:href="#DejaVuSans-6c" x="919.527344"/>
     <use xlink:href="#DejaVuSans-61" x="947.310547"/>
     <use xlink:href="#DejaVuSans-72" x="1008.589844"/>
     <use xlink:href="#DejaVuSans-29" x="1049.703125"/>
     <use xlink:href="#DejaVuSans-20" x="1088.716797"/>
     <use xlink:href="#DejaVuSans-2e" x="1120.503906"/>
     <use xlink:href="#DejaVuSans-20" x="1152.291016"/>
     <use xlink:href="#DejaVuSans-28" x="1184.078125"/>
     <use xlink:href="#DejaVuSans-70" x="1223.091797"/>
     <use xlink:href="#DejaVuSans-74" x="1286.568359"/>
     <use xlink:href="#DejaVuSans-20" x="1325.777344"/>
     <use xlink:href="#DejaVuSans-3d" x="1357.564453"/>
     <use xlink:href="#DejaVuSans-20" x="1441.353516"/>
     <use xlink:href="#DejaVuSans-31" x="1473.140625"/>
     <use xlink:href="#DejaVuSans-29" x="1536.763672"/>
     <use xlink:href="#DejaVuSans-20" x="1575.777344"/>
     <use xlink:href="#DejaVuSans-2e" x="1607.564453"/>
     <use xlink:href="#DejaVuSans-20" x="1639.351562"/>
     <use xlink:href="#DejaVuSans-28" x="1671.138672"/>
     <use xlink:href="#DejaVuSans-70" x="1710.152344"/>
     <use xlink:href="#DejaVuSans-74" x="1773.628906"/>
     <use xlink:href="#DejaVuSans-20" x="1812.837891"/>
     <use xlink:href="#DejaVuSans-3c" x="1844.625"/>
     <use xlink:href="#DejaVuSans-2d" x="1928.414062"/>
     <use xlink:href="#DejaVuSans-20" x="1964.498047"/>
     <use xlink:href="#DejaVuSans-32" x="1996.285156"/>
     <use xlink:href="#DejaVuSans-29" x="2059.908203"/>
     <use xlink:href="#DejaVuSans-22" x="2098.921875"/>
    </g>
   </g>
   <g id="text_8">
    <g id="patch_8">
     <path d="M 282.492266 508.702253 
L 415.907734 508.702253 
L 415.907734 492.485846 
L 282.492266 492.485846 
z
" style="opacity: 0.6; stroke: #000000; stroke-linejoin: miter"/>
    </g>
    <!-- [SW -&gt; C] rcfg('Help', '"one"') -->
    <g style="fill: #ffffff" transform="translate(286.487266 502.939518) scale(0.085 -0.085)">
     <defs>
      <path id="DejaVuSans-3e" d="M 678 3150 
L 678 3719 
L 4684 2266 
L 4684 1747 
L 678 294 
L 678 863 
L 3897 2003 
L 678 3150 
z
" transform="scale(0.015625)"/>
      <path id="DejaVuSans-43" d="M 4122 4306 
L 4122 3641 
Q 3803 3938 3442 4084 
Q 3081 4231 2675 4231 
Q 1875 4231 1450 3742 
Q 1025 3253 1025 2328 
Q 1025 1406 1450 917 
Q 1875 428 2675 428 
Q 3081 428 3442 575 
Q 3803 722 4122 1019 
L 4122 359 
Q 3791 134 3420 21 
Q 3050 -91 2638 -91 
Q 1578 -91 968 557 
Q 359 1206 359 2328 
Q 359 3453 968 4101 
Q 1578 4750 2638 4750 
Q 3056 4750 3426 4639 
Q 3797 4528 4122 4306 
z
" transform="scale(0.015625)"/>
      <path id="DejaVuSans-27" d="M 1147 4666 
L 1147 2931 
L 616 2931 
L 616 4666 
L 1147 4666 
z
" transform="scale(0.015625)"/>
      <path id="DejaVuSans-48" d="M 628 4666 
L 1259 4666 
L 1259 2753 
L 3553 2753 
L 3553 4666 
L 4184 4666 
L 4184 0 
L 3553 0 
L 3553 2222 
L 1259 2222 
L 1259 0 
L 628 0 
L 628 4666 
z
" transform="scale(0.015625)"/>
      <path id="DejaVuSans-2c" d="M 750 794 
L 1409 794 
L 1409 256 
L 897 -744 
L 494 -744 
L 750 256 
L 750 794 
z
" transform="scale(0.015625)"/>
     </defs>
     <use xlink:href="#DejaVuSans-5b"/>
     <use xlink:href="#DejaVuSans-53" x="39.013672"/>
     <use xlink:href="#DejaVuSans-57" x="102.490234"/>
     <use xlink:href="#DejaVuSans-20" x="201.367188"/>
     <use xlink:href="#DejaVuSans-2d" x="233.154297"/>
     <use xlink:href="#DejaVuSans-3e" x="269.238281"/>
     <use xlink:href="#DejaVuSans-20" x="353.027344"/>
     <use xlink:href="#DejaVuSans-43" x="384.814453"/>
     <use xlink:href="#DejaVuSans-5d" x="454.638672"/>
     <use xlink:href="#DejaVuSans-20" x="493.652344"/>
     <use xlink:href="#DejaVuSans-72" x="525.439453"/>
     <use xlink:href="#DejaVuSans-63" x="564.302734"/>
     <use xlink:href="#DejaVuSans-66" x="619.283203"/>
     <use xlink:href="#DejaVuSans-67" x="654.488281"/>
     <use xlink:href="#DejaVuSans-28" x="717.964844"/>
     <use xlink:href="#DejaVuSans-27" x="756.978516"/>
     <use xlink:href="#DejaVuSans-48" x="784.46875"/>
     <use xlink:href="#DejaVuSans-65" x="859.664062"/>
     <use xlink:href="#DejaVuSans-6c" x="921.1875"/>
     <use xlink:href="#DejaVuSans-70" x="948.970703"/>
     <use xlink:href="#DejaVuSans-27" x="1012.447266"/>
     <use xlink:href="#DejaVuSans-2c" x="1039.9375"/>
     <use xlink:href="#DejaVuSans-20" x="1071.724609"/>
     <use xlink:href="#DejaVuSans-27" x="1103.511719"/>
     <use xlink:href="#DejaVuSans-22" x="1131.001953"/>
     <use xlink:href="#DejaVuSans-6f" x="1176.998047"/>
     <use xlink:href="#DejaVuSans-6e" x="1238.179688"/>
     <use xlink:href="#DejaVuSans-65" x="1301.558594"/>
     <use xlink:href="#DejaVuSans-22" x="1363.082031"/>
     <use xlink:href="#DejaVuSans-27" x="1409.078125"/>
     <use xlink:href="#DejaVuSans-29" x="1436.568359"/>
    </g>
   </g>
   <g id="text_9">
    <g id="patch_9">
     <path d="M 266.864219 208.972335 
L 431.535781 208.972335 
L 431.535781 192.755929 
L 266.864219 192.755929 
z
" style="opacity: 0.6; stroke: #000000; stroke-linejoin: miter"/>
    </g>
    <!-- [SW] "(flag = blocking) . (pt = 1) . 1" -->
    <g style="fill: #ffffff" transform="translate(270.859219 203.209601) scale(0.085 -0.085)">
     <use xlink:href="#DejaVuSans-5b"/>
     <use xlink:href="#DejaVuSans-53" x="39.013672"/>
     <use xlink:href="#DejaVuSans-57" x="102.490234"/>
     <use xlink:href="#DejaVuSans-5d" x="201.367188"/>
     <use xlink:href="#DejaVuSans-20" x="240.380859"/>
     <use xlink:href="#DejaVuSans-22" x="272.167969"/>
     <use xlink:href="#DejaVuSans-28" x="318.164062"/>
     <use xlink:href="#DejaVuSans-66" x="357.177734"/>
     <use xlink:href="#DejaVuSans-6c" x="392.382812"/>
     <use xlink:href="#DejaVuSans-61" x="420.166016"/>
     <use xlink:href="#DejaVuSans-67" x="481.445312"/>
     <use xlink:href="#DejaVuSans-20" x="544.921875"/>
     <use xlink:href="#DejaVuSans-3d" x="576.708984"/>
     <use xlink:href="#DejaVuSans-20" x="660.498047"/>
     <use xlink:href="#DejaVuSans-62" x="692.285156"/>
     <use xlink:href="#DejaVuSans-6c" x="755.761719"/>
     <use xlink:href="#DejaVuSans-6f" x="783.544922"/>
     <use xlink:href="#DejaVuSans-63" x="844.726562"/>
     <use xlink:href="#DejaVuSans-6b" x="899.707031"/>
     <use xlink:href="#DejaVuSans-69" x="957.617188"/>
     <use xlink:href="#DejaVuSans-6e" x="985.400391"/>
     <use xlink:href="#DejaVuSans-67" x="1048.779297"/>
     <use xlink:href="#DejaVuSans-29" x="1112.255859"/>
     <use xlink:href="#DejaVuSans-20" x="1151.269531"/>
     <use xlink:href="#DejaVuSans-2e" x="1183.056641"/>
     <use xlink:href="#DejaVuSans-20" x="1214.84375"/>
     <use xlink:href="#DejaVuSans-28" x="1246.630859"/>
     <use xlink:href="#DejaVuSans-70" x="1285.644531"/>
     <use xlink:href="#DejaVuSans-74" x="1349.121094"/>
     <use xlink:href="#DejaVuSans-20" x="1388.330078"/>
     <use xlink:href="#DejaVuSans-3d" x="1420.117188"/>
     <use xlink:href="#DejaVuSans-20" x="1503.90625"/>
     <use xlink:href="#DejaVuSans-31" x="1535.693359"/>
     <use xlink:href="#DejaVuSans-29" x="1599.316406"/>
     <use xlink:href="#DejaVuSans-20" x="1638.330078"/>
     <use xlink:href="#DejaVuSans-2e" x="1670.117188"/>
     <use xlink:href="#DejaVuSans-20" x="1701.904297"/>
     <use xlink:href="#DejaVuSans-31" x="1733.691406"/>
     <use xlink:href="#DejaVuSans-22" x="1797.314453"/>
    </g>
   </g>
  </g>
 </g>
 <defs>
  <clipPath id="p5793bef0df">
   <rect x="34.92" y="0.9936" width="628.56" height="991.6128"/>
  </clipPath>
 </defs>
</svg>
